<svg xmlns="http://www.w3.org/2000/svg" viewBox="0 12.180000305175781 348.8800048828125 34.650001525878906" data-asc="0.9267578125" width="348.8800048828125" height="34.650001525878906"><defs/><g fill="#ffffff"><g transform="translate(0, 0)"><path d="M16.41 35.13Q18.90 32.45 20.30 29.08Q21.70 25.71 21.70 21.89Q21.70 18.07 19.70 14.40Q19.70 14.06 20.50 13.40Q21.29 12.74 21.85 12.74Q27.25 13.11 30.30 15.91Q33.35 18.70 33.35 23.05Q33.35 25.73 32.09 28.08Q30.83 30.42 28.78 31.98Q24.34 35.30 18.65 35.30Q17.26 35.30 16.41 35.13M13.23 44.70Q13.23 45.04 12.45 45.69Q11.67 46.34 11.08 46.34L0 46.34Q3.34 32.86 4.76 14.97Q4.76 14.65 5.54 14.03Q6.32 13.40 6.88 13.38Q14.70 12.79 18.07 12.79Q14.58 27.76 13.23 44.70ZM65.99 45.36Q61.23 46.39 55.76 46.39Q54.52 44.70 54.52 42.85Q54.52 40.99 55.62 33.44Q56.71 25.88 56.74 23.39Q56.74 23.07 57.54 22.44Q58.35 21.80 58.89 21.80Q64.11 21.80 68.73 23.19Q68.63 23.97 67.43 29.41Q66.24 34.84 66.24 38.12Q66.24 41.41 67.99 43.16Q67.99 43.51 67.31 44.30Q66.63 45.09 65.99 45.36M54.69 21.46Q51.78 23.61 50.28 27.29Q48.78 30.98 48.78 34.53Q48.78 38.09 49.57 40.91Q50.37 43.73 51.71 44.68Q51.71 45.04 50.93 45.69Q50.15 46.34 49.58 46.34Q43.99 46.34 40.61 43.53Q37.23 40.72 37.23 35.86Q37.23 29.83 41.80 25.73Q43.99 23.75 47.33 22.61Q50.66 21.46 54.69 21.46ZM87.92 21.24Q86.52 22.56 86.52 24.02Q86.52 27.44 91.72 31.10Q94.07 32.76 95.39 33.94Q98.34 36.57 98.34 39.66Q98.34 42.75 95.25 44.64Q92.16 46.53 86.60 46.53Q87.23 45.12 87.23 43.97Q87.23 42.82 86.58 41.74Q85.94 40.65 84.91 39.75Q83.89 38.84 82.64 37.93Q81.40 37.01 80.15 36.06Q78.91 35.11 77.88 34.11Q75.56 31.84 75.56 29.20Q75.56 26.29 77.71 24.46Q81.40 21.36 87.92 21.24M91.70 21.31Q95.14 21.31 97.61 22.67Q100.07 24.02 100.07 25.98Q100.07 29.00 94.41 29.69Q94.46 29.52 94.46 29.15Q94.46 27.29 93.29 25.72Q92.11 24.15 90.01 23.19Q90.01 22.80 90.55 22.12Q91.09 21.44 91.70 21.31M82.32 46.44Q81.10 46.53 80.52 46.53Q76.98 46.53 74.63 45.37Q72.29 44.21 72.29 42.36Q72.29 38.62 77.93 37.65Q77.73 38.70 77.77 39.49Q77.81 40.28 78.31 41.05Q78.81 41.82 79.71 42.43Q81.32 43.51 83.72 44.41Q83.72 44.78 83.26 45.50Q82.81 46.22 82.32 46.44ZM117.09 21.24Q115.70 22.56 115.70 24.02Q115.70 27.44 120.90 31.10Q123.24 32.76 124.56 33.94Q127.51 36.57 127.51 39.66Q127.51 42.75 124.43 44.64Q121.34 46.53 115.77 46.53Q116.41 45.12 116.41 43.97Q116.41 42.82 115.76 41.74Q115.11 40.65 114.09 39.75Q113.06 38.84 111.82 37.93Q110.57 37.01 109.33 36.06Q108.08 35.11 107.06 34.11Q104.74 31.84 104.74 29.20Q104.74 26.29 106.88 24.46Q110.57 21.36 117.09 21.24M120.87 21.31Q124.32 21.31 126.78 22.67Q129.25 24.02 129.25 25.98Q129.25 29.00 123.58 29.69Q123.63 29.52 123.63 29.15Q123.63 27.29 122.46 25.72Q121.29 24.15 119.19 23.19Q119.19 22.80 119.73 22.12Q120.26 21.44 120.87 21.31M111.50 46.44Q110.28 46.53 109.69 46.53Q106.15 46.53 103.81 45.37Q101.46 44.21 101.46 42.36Q101.46 38.62 107.10 37.65Q106.91 38.70 106.95 39.49Q106.98 40.28 107.48 41.05Q107.98 41.82 108.89 42.43Q110.50 43.51 112.89 44.41Q112.89 44.78 112.44 45.50Q111.99 46.22 111.50 46.44ZM149.15 12.18Q147.22 13.82 147.22 16.15Q147.22 18.48 148.50 20.81Q149.78 23.14 151.49 24.78Q153.20 26.42 154.14 27.38Q155.08 28.34 156.26 29.70Q157.45 31.05 158.13 32.13Q159.81 34.74 159.81 36.71Q159.81 38.67 159.00 40.36Q158.18 42.04 156.68 43.42Q155.18 44.80 152.84 45.70Q150.51 46.61 147.71 46.73Q148.49 45.61 148.49 44.37Q148.49 43.14 147.97 41.86Q147.46 40.58 146.41 39.11Q144.73 36.74 142.64 34.47Q140.55 32.20 139.73 31.23Q138.92 30.25 137.89 28.76Q135.89 25.88 135.89 22.97Q135.89 20.07 137.67 17.58Q139.45 15.09 142.49 13.65Q145.53 12.21 149.15 12.18M157.28 26.93Q157.28 24.56 156.42 22.05Q154.74 17.14 150.81 14.14Q150.85 13.70 151.64 13.09Q152.42 12.48 152.93 12.48Q154.71 12.48 157.09 13.18Q159.47 13.89 160.86 14.55Q160.99 15.28 160.99 17.10Q160.99 18.92 160.64 21.64Q160.30 24.37 159.81 25.95Q159.67 26.32 158.78 26.62Q157.89 26.93 157.28 26.93M145.58 44.60Q145.29 46.26 144.68 46.83Q142.11 46.83 138.62 46.17Q135.13 45.51 133.54 44.48Q133.52 43.95 133.52 42.94Q133.52 38.18 134.64 33.91Q134.74 33.52 135.47 32.92Q136.21 32.32 136.79 32.32Q137.35 35.01 138.81 37.72Q140.26 40.43 142.10 42.30Q143.95 44.17 145.58 44.60ZM177.78 46.34L166.67 46.34Q170.12 31.54 171.46 14.70Q171.46 14.38 172.25 13.75Q173.05 13.11 173.61 13.11L184.69 13.11Q182.91 20.63 181.67 29.22Q185.03 29.88 185.99 30.25Q185.99 31.76 185.42 32.47Q182.91 32.67 181.13 33.03Q180.37 38.99 179.91 44.73Q179.91 45.04 179.13 45.69Q178.34 46.34 177.78 46.34M195.92 46.34L184.84 46.34Q188.23 31.81 189.62 14.70Q189.62 14.38 190.41 13.75Q191.19 13.11 191.75 13.11L202.83 13.11Q199.44 27.56 198.05 44.73Q198.05 45.04 197.25 45.69Q196.46 46.34 195.92 46.34ZM233.50 46.34L222.14 46.34Q220.24 31.15 217.33 19.97Q218.75 17.09 219.75 14.70Q219.92 14.33 220.64 13.72Q221.36 13.11 221.88 13.11L229.64 13.11Q230.64 20.48 232.34 29.53Q234.03 38.57 235.64 44.73Q235.64 45.04 234.86 45.69Q234.08 46.34 233.50 46.34M213.99 42.02L214.06 44.73Q214.06 45.04 213.27 45.69Q212.48 46.34 211.91 46.34L204.13 46.34Q207.98 39.79 216.09 22.36Q216.31 23.00 216.31 24.13Q216.31 25.27 215.98 27.42Q215.65 29.57 215.14 32.48Q214.62 35.40 214.38 37.21Q217.90 37.74 219.48 38.40Q219.48 39.87 218.99 40.58Q216.46 40.80 213.99 41.24L213.99 42.02ZM269.26 44.73Q269.26 45.04 268.48 45.69Q267.70 46.34 267.14 46.34L260.84 46.34Q258.08 41.33 253.48 34.94Q248.88 28.54 245.09 24.22Q245.41 21.61 246.07 14.70Q246.14 14.36 246.91 13.73Q247.68 13.11 248.19 13.11L254.57 13.11Q257.81 18.82 261.51 23.93Q265.21 29.03 270.14 35.06Q269.51 40.92 269.26 44.73M268.85 30.79Q267.68 24.76 266.71 21.30Q265.75 17.85 264.11 14.70Q264.11 14.38 264.90 13.75Q265.70 13.11 266.28 13.11L274.05 13.11Q272.41 20.17 271.00 29.15Q271.00 29.49 270.21 30.14Q269.43 30.79 268.85 30.79M246.41 28.98Q247.05 34.11 248.14 37.56Q249.24 41.02 251.20 44.73Q251.20 45.04 250.42 45.69Q249.63 46.34 249.05 46.34L241.28 46.34Q242.92 39.23 244.26 30.59Q244.26 30.27 245.06 29.63Q245.85 28.98 246.41 28.98ZM297.05 46.34L285.67 46.34Q289.26 33.37 290.77 14.70Q290.77 14.38 291.56 13.75Q292.36 13.11 292.90 13.11L303.78 13.11Q300.63 26.37 299.19 44.73Q299.19 45.04 298.41 45.69Q297.63 46.34 297.05 46.34M308.47 28.39Q308.47 25.05 307.41 20.97Q306.35 16.89 305.13 15.06Q305.27 13.94 305.86 13.11L313.45 13.11Q312.67 20.46 311.38 26.78Q311.28 27.15 310.19 27.77Q309.11 28.39 308.47 28.39M278.74 28.37Q278.93 25.51 279.66 20.86Q280.40 16.21 280.76 14.84Q280.93 14.36 281.60 13.73Q282.28 13.11 282.71 13.11L290.14 13.11Q287.65 16.09 286.32 18.60Q284.99 21.12 283.75 23.47Q282.52 25.83 281.86 27.05Q281.71 27.32 280.51 27.84Q279.30 28.37 278.74 28.37ZM330.20 46.83Q333.76 43.85 335.51 38.13Q337.26 32.42 337.26 26.11Q337.26 19.80 335.96 14.70Q335.96 14.36 336.76 13.71Q337.55 13.06 338.11 13.06Q341.65 13.75 344.14 16.02Q348.88 20.34 348.88 28.00Q348.88 33.84 345.95 38.53Q342.70 43.77 337.01 45.75Q333.89 46.83 330.20 46.83M335.06 12.48Q331.47 15.48 329.71 21.17Q327.95 26.86 327.95 33.20Q327.95 39.55 329.30 44.58Q329.30 44.92 328.50 45.58Q327.71 46.24 327.12 46.24Q321.75 45.17 318.99 40.87Q316.36 36.74 316.36 31.32Q316.36 25.49 319.29 20.75Q322.51 15.55 328.22 13.57Q331.35 12.48 335.06 12.48Z"/></g></g></svg>